<?xml version="1.0" encoding="utf-8"?>
<!-- Generator: Adobe Illustrator 22.0.1, SVG Export Plug-In . SVG Version: 6.00 Build 0)  -->
<svg version="1.1" id="Capa_1" xmlns="http://www.w3.org/2000/svg" xmlns:xlink="http://www.w3.org/1999/xlink" x="0px" y="0px"
	 viewBox="0 0 325 70" style="enable-background:new 0 0 325 70;" xml:space="preserve">
<style type="text/css">
	.st0{fill:#FFFFFF;}
</style>
<g>
	<path class="st0" d="M30.2,39.7h-4.7v17.5h-8.4V15.3h8.4v17.1h3.7l11.1-17.1h10.3L36.5,34.8l15.2,22.4H41.4L30.2,39.7z"/>
	<path class="st0" d="M99.7,57.2h-8.4V39.8H74.2v17.4h-8.4V15.3h8.4v18h17.1v-18h8.4V57.2z"/>
	<path class="st0" d="M144,38.8h-17.4v12h20.3v6.5h-28.7v-42h28.7v6.5h-20.3v10.5H144V38.8z"/>
	<path class="st0" d="M192.3,21.8h-11.9v35.5H172V21.8h-11.8v-6.5h32.1L192.3,21.8L192.3,21.8z"/>
	<path class="st0" d="M241.5,57.2h-8.4V39.8H216v17.4h-8.4V15.3h8.4v18h17.1v-18h8.4V57.2z"/>
	<path class="st0" d="M282.5,48.2h-14.7l-2.9,9h-8.5l14.4-41.9h8.6l14.4,41.9h-8.5L282.5,48.2z M269.8,41.6h10.6l-5.2-16.5H275
		L269.8,41.6z"/>
</g>
</svg>
